<svg width="127" height="78" viewBox="0 0 127 78" fill="none" xmlns="http://www.w3.org/2000/svg">
<path d="M115.509 76.6321C115.582 77.1796 116.085 77.5642 116.632 77.4912L125.553 76.3017C126.101 76.2288 126.485 75.7258 126.412 75.1784C126.339 74.6309 125.836 74.2463 125.289 74.3193L117.359 75.3766L116.302 67.4468C116.229 66.8993 115.726 66.5147 115.178 66.5877C114.631 66.6607 114.246 67.1637 114.319 67.7111L115.509 76.6321ZM0.487259 35.8585C1.11195 36.2316 1.7331 36.5921 2.35057 36.9401L3.33246 35.1977C2.72988 34.8581 2.12326 34.5061 1.51274 34.1415L0.487259 35.8585ZM6.134 38.9398C7.45889 39.5931 8.76482 40.187 10.0503 40.7224L10.8193 38.8762C9.57448 38.3576 8.30706 37.7814 7.0185 37.146L6.134 38.9398ZM14.0774 42.2329C15.4878 42.702 16.8702 43.0973 18.2226 43.4202L18.6871 41.4749C17.3938 41.1661 16.067 40.7869 14.7086 40.3351L14.0774 42.2329ZM22.4887 44.2141C23.9811 44.4098 25.4304 44.5101 26.8329 44.5169L26.8426 42.5169C25.5287 42.5106 24.1631 42.4166 22.7488 42.231L22.4887 44.2141ZM31.199 44.2157C32.6989 43.9932 34.1306 43.6485 35.4877 43.1847L34.8409 41.2922C33.6045 41.7147 32.2915 42.0317 30.9056 42.2373L31.199 44.2157ZM39.5132 41.3306C40.7949 40.5669 41.9786 39.6716 43.0567 38.6511L41.6819 37.1986C40.711 38.1176 39.6451 38.9239 38.4895 39.6124L39.5132 41.3306ZM45.9309 35.2736C46.7449 34.0837 47.4563 32.7909 48.0608 31.4019L46.2269 30.6039C45.6705 31.8825 45.0195 33.0637 44.2802 34.1443L45.9309 35.2736ZM49.4742 27.2508C49.8228 25.8887 50.0873 24.4581 50.2649 22.963L48.2789 22.727C48.1111 24.1398 47.8621 25.4832 47.5366 26.7548L49.4742 27.2508ZM50.5331 18.6286C50.5392 17.9179 50.528 17.1952 50.4992 16.4608L48.5008 16.5392C48.5284 17.2426 48.539 17.9334 48.5332 18.6113L50.5331 18.6286ZM50.4992 16.4608C50.4734 15.8013 50.4758 15.1693 50.5051 14.5643L48.5074 14.4677C48.4752 15.1343 48.4728 15.8248 48.5008 16.5392L50.4992 16.4608ZM51.085 10.906C51.4456 9.66006 51.959 8.57714 52.6026 7.64313L50.9557 6.50828C50.1821 7.63098 49.5801 8.91177 49.1638 10.35L51.085 10.906ZM55.1205 5.1149C56.073 4.44767 57.1642 3.91487 58.383 3.51578L57.7606 1.61508C56.3769 2.06815 55.1047 2.68408 53.973 3.47686L55.1205 5.1149ZM62.0328 2.75718C63.2247 2.62946 64.4911 2.59401 65.822 2.64915L65.9047 0.650859C64.487 0.592125 63.121 0.629123 61.8197 0.768562L62.0328 2.75718ZM69.637 3.02788C70.866 3.21539 72.132 3.46723 73.4282 3.78138L73.8993 1.83766C72.5515 1.51099 71.2288 1.2476 69.9387 1.05076L69.637 3.02788ZM77.148 4.82777C78.3544 5.21233 79.5786 5.64506 80.8156 6.12423L81.538 4.25928C80.2649 3.76608 79.0023 3.31971 77.7554 2.92224L77.148 4.82777ZM84.3989 7.62686C85.5637 8.15205 86.7347 8.71556 87.9078 9.31593L88.819 7.53554C87.6173 6.92051 86.4165 6.34268 85.221 5.80362L84.3989 7.62686ZM91.3397 11.1749C92.4559 11.8131 93.5701 12.4833 94.6787 13.1842L95.7474 11.4936C94.614 10.7771 93.4745 10.0917 92.3325 9.43868L91.3397 11.1749ZM97.9291 15.339C98.9911 16.0766 100.044 16.8417 101.086 17.6332L102.296 16.0409C101.232 15.232 100.155 14.4501 99.0699 13.6963L97.9291 15.339ZM104.141 20.0612C105.139 20.8895 106.121 21.7421 107.086 22.6177L108.43 21.1369C107.443 20.2412 106.439 19.3694 105.419 18.5227L104.141 20.0612ZM109.912 25.3025C110.373 25.7605 110.829 26.2239 111.279 26.6925L112.721 25.3075C112.261 24.8274 111.794 24.3529 111.323 23.8841L109.912 25.3025ZM111.279 26.6925C111.739 27.1718 112.182 27.651 112.61 28.1299L114.102 26.798C113.658 26.3008 113.198 25.8039 112.721 25.3075L111.279 26.6925ZM115.068 31.1048C115.877 32.168 116.612 33.228 117.278 34.2827L118.969 33.2151C118.271 32.1101 117.503 31.0021 116.659 29.8933L115.068 31.1048ZM119.176 37.6319C119.773 38.8155 120.288 39.99 120.728 41.1523L122.598 40.443C122.133 39.2156 121.59 37.9774 120.962 36.7318L119.176 37.6319ZM121.89 44.8036C122.219 46.0787 122.466 47.3354 122.639 48.5695L124.62 48.2907C124.436 46.9837 124.175 45.653 123.827 44.3034L121.89 44.8036ZM122.96 52.3949C122.996 53.7095 122.956 54.9913 122.855 56.2346L124.848 56.397C124.955 55.085 124.997 53.7305 124.959 52.3399L122.96 52.3949ZM122.343 60.046C122.098 61.3549 121.794 62.6058 121.451 63.79L123.373 64.3462C123.732 63.1043 124.052 61.7902 124.309 60.4133L122.343 60.046ZM120.204 67.451C119.691 68.7593 119.153 69.9417 118.634 70.9797L120.423 71.8738C120.966 70.7876 121.529 69.5506 122.066 68.1816L120.204 67.451ZM116.752 74.3415C116.431 74.8543 116.165 75.2472 115.982 75.5095C115.89 75.6406 115.819 75.739 115.772 75.8033C115.748 75.8355 115.731 75.8591 115.72 75.874C115.714 75.8815 115.71 75.8868 115.708 75.8899C115.706 75.8914 115.706 75.8924 115.705 75.8929C115.705 75.8931 115.705 75.8932 115.705 75.8931C115.705 75.8931 115.705 75.893 115.705 75.8929C115.705 75.8929 115.705 75.8928 115.705 75.8928C115.705 75.8927 115.706 75.8927 115.706 75.8927C115.706 75.8926 115.706 75.8925 116.5 76.5C117.294 77.1074 117.294 77.1074 117.294 77.1073C117.294 77.1073 117.295 77.1072 117.295 77.1072C117.295 77.1071 117.295 77.1069 117.295 77.1068C117.295 77.1066 117.295 77.1063 117.295 77.106C117.296 77.1054 117.296 77.1047 117.297 77.1038C117.299 77.102 117.3 77.0996 117.302 77.0968C117.307 77.091 117.313 77.0829 117.321 77.0727C117.336 77.0523 117.358 77.023 117.385 76.9851C117.441 76.9093 117.521 76.7989 117.621 76.6552C117.822 76.368 118.106 75.9475 118.446 75.4048L116.752 74.3415Z" fill="white"/>
</svg>
