<svg width="29" height="23" viewBox="0 0 29 23" fill="none" xmlns="http://www.w3.org/2000/svg">
<path d="M19.9489 0.289123C19.8288 0.140392 19.6021 0.140393 19.4821 0.289124L18.3071 1.74443C18.2184 1.85439 18.2184 2.01138 18.3071 2.12133L24.3784 9.64146C24.5373 9.83826 24.3963 10.1313 24.1434 10.1299L0.301614 10.0016C0.135301 10.0007 0 10.1353 0 10.3016V12.867C0 12.9403 0.0596822 12.9997 0.133045 12.9993L24.1432 12.8703C24.3961 12.869 24.5371 13.162 24.3782 13.3588L18.3071 20.8787C18.2184 20.9886 18.2184 21.1456 18.3071 21.2556L19.4821 22.7109C19.6021 22.8596 19.8288 22.8596 19.9489 22.7109L28.8479 11.6885C28.9366 11.5785 28.9366 11.4215 28.8479 11.3115L19.9489 0.289123Z" fill="#0D5810"/>
</svg>
