<svg width="10" height="10" viewBox="0 0 10 10" fill="none" xmlns="http://www.w3.org/2000/svg">
<path d="M5 0.5C2.23857 0.5 0 2.51471 0 5C0 7.48529 2.23857 9.5 5 9.5C7.76143 9.5 10 7.48529 10 5C10 2.51471 7.76143 0.5 5 0.5ZM5 8.62903C2.77153 8.62903 0.967742 7.00593 0.967742 5C0.967742 2.9944 2.77119 1.37097 5 1.37097C7.22847 1.37097 9.03226 2.99407 9.03226 5C9.03226 7.00562 7.22881 8.62903 5 8.62903ZM7.16433 6.79521C6.9705 6.97144 6.24639 7.54635 5.06625 7.54635C3.40436 7.54635 2.23391 6.43178 2.23391 4.97759C2.23391 3.54136 3.44913 2.44814 5.05169 2.44814C6.17127 2.44814 6.84077 2.93116 7.01929 3.07921C7.06124 3.11393 7.08818 3.1609 7.09532 3.21179C7.10247 3.26268 7.08936 3.3142 7.05833 3.35723L6.6923 3.86734C6.61486 3.97531 6.45105 3.99948 6.3395 3.92034C6.16621 3.79739 5.69808 3.51139 5.09538 3.51139C4.12153 3.51139 3.5245 4.15246 3.5245 4.96449C3.5245 5.71913 4.06659 6.48309 5.10266 6.48309C5.76107 6.48309 6.24869 6.13763 6.42778 5.98909C6.53403 5.90096 6.70189 5.9158 6.78706 6.02063L7.18756 6.51363C7.2217 6.55533 7.23813 6.60664 7.23387 6.65829C7.22961 6.70994 7.20494 6.75851 7.16433 6.79521Z" fill="white"/>
</svg>
