<svg width="75" height="75" viewBox="0 0 75 75" fill="none" xmlns="http://www.w3.org/2000/svg">
<g filter="url(#filter0_d_60_69)">
<path d="M37.5 15C25.0734 15 15 25.0734 15 37.5C15 49.9266 25.0734 60 37.5 60C49.9266 60 60 49.9266 60 37.5C60 25.0734 49.9266 15 37.5 15ZM42.8297 30.5484H39.4477C39.0469 30.5484 38.6016 31.0758 38.6016 31.7766V34.2188H42.832L42.1922 37.7016H38.6016V48.157H34.6102V37.7016H30.9891V34.2188H34.6102V32.1703C34.6102 29.2312 36.6492 26.843 39.4477 26.843H42.8297V30.5484Z" fill="black"/>
</g>
<defs>
<filter id="filter0_d_60_69" x="0" y="0" width="75" height="75" filterUnits="userSpaceOnUse" color-interpolation-filters="sRGB">
<feFlood flood-opacity="0" result="BackgroundImageFix"/>
<feColorMatrix in="SourceAlpha" type="matrix" values="0 0 0 0 0 0 0 0 0 0 0 0 0 0 0 0 0 0 127 0" result="hardAlpha"/>
<feOffset/>
<feGaussianBlur stdDeviation="7.5"/>
<feComposite in2="hardAlpha" operator="out"/>
<feColorMatrix type="matrix" values="0 0 0 0 0.0509804 0 0 0 0 0.345098 0 0 0 0 0.0627451 0 0 0 1 0"/>
<feBlend mode="normal" in2="BackgroundImageFix" result="effect1_dropShadow_60_69"/>
<feBlend mode="normal" in="SourceGraphic" in2="effect1_dropShadow_60_69" result="shape"/>
</filter>
</defs>
</svg>
