<svg width="75" height="75" viewBox="0 0 75 75" fill="none" xmlns="http://www.w3.org/2000/svg">
<g filter="url(#filter0_d_60_63)">
<path d="M46.6359 30.5883C46.4407 30.0826 46.1417 29.6234 45.7582 29.2404C45.3747 28.8573 44.9153 28.5588 44.4094 28.3641C43.7128 28.1061 42.9771 27.9697 42.2344 27.9609C40.9992 27.9047 40.6289 27.8906 37.5 27.8906C34.3711 27.8906 34.0008 27.9047 32.7656 27.9609C32.0221 27.9694 31.2856 28.1058 30.5883 28.3641C30.0826 28.5593 29.6235 28.8583 29.2404 29.2418C28.8573 29.6253 28.5588 30.0848 28.3641 30.5906C28.1061 31.2872 27.9697 32.0229 27.9609 32.7656C27.9047 34.0008 27.8906 34.3711 27.8906 37.5C27.8906 40.6289 27.9047 40.9992 27.9609 42.2344C27.9695 42.9779 28.1058 43.7144 28.3641 44.4117C28.5593 44.9174 28.8583 45.3765 29.2418 45.7596C29.6253 46.1427 30.0848 46.4412 30.5906 46.6359C31.2872 46.8939 32.0229 47.0303 32.7656 47.0391C34.0008 47.0953 34.3711 47.107 37.5 47.107C40.6289 47.107 40.9992 47.0953 42.2344 47.0367C42.9778 47.029 43.7143 46.8934 44.4117 46.6359C44.9174 46.4407 45.3766 46.1417 45.7596 45.7582C46.1427 45.3747 46.4412 44.9152 46.6359 44.4094C46.8939 43.7128 47.0303 42.9771 47.0391 42.2344C47.0953 40.9992 47.107 40.6289 47.107 37.5C47.107 34.3711 47.0953 34.0008 47.0367 32.7656C47.029 32.0222 46.8934 31.2857 46.6359 30.5883ZM37.5 43.5187C36.3096 43.5187 35.1459 43.1658 34.1562 42.5044C33.1664 41.8431 32.395 40.9031 31.9394 39.8033C31.4839 38.7035 31.3647 37.4933 31.5969 36.3258C31.8291 35.1583 32.4024 34.0858 33.2441 33.2441C34.0858 32.4024 35.1583 31.8291 36.3258 31.5969C37.4933 31.3647 38.7035 31.4839 39.8033 31.9394C40.9031 32.3949 41.8431 33.1664 42.5044 34.1562C43.1658 35.1459 43.5188 36.3096 43.5188 37.5C43.5188 39.0963 42.8846 40.6272 41.7559 41.7559C40.6272 42.8846 39.0963 43.5187 37.5 43.5187ZM43.7555 32.6508C43.4773 32.6508 43.2055 32.5683 42.9742 32.4138C42.7429 32.2593 42.5627 32.0396 42.4563 31.7827C42.3498 31.5257 42.322 31.243 42.3762 30.9702C42.4305 30.6974 42.5644 30.4468 42.7611 30.2502C42.9578 30.0535 43.2083 29.9196 43.4811 29.8653C43.7539 29.811 44.0367 29.8389 44.2936 29.9453C44.5506 30.0518 44.7702 30.232 44.9247 30.4633C45.0792 30.6945 45.1617 30.9664 45.1617 31.2445C45.1617 31.6175 45.0136 31.9752 44.7498 32.2389C44.4861 32.5026 44.1284 32.6508 43.7555 32.6508ZM41.407 37.5C41.407 38.2727 41.1779 39.0281 40.7486 39.6706C40.3193 40.3131 39.7091 40.8139 38.9952 41.1096C38.2812 41.4053 37.4957 41.4827 36.7378 41.332C35.9799 41.1812 35.2837 40.8091 34.7373 40.2627C34.1909 39.7163 33.8188 39.0201 33.668 38.2622C33.5173 37.5043 33.5947 36.7188 33.8904 36.0048C34.1861 35.2909 34.6869 34.6807 35.3294 34.2514C35.9719 33.8221 36.7273 33.593 37.5 33.593C38.5362 33.593 39.53 34.0046 40.2627 34.7373C40.9954 35.47 41.407 36.4638 41.407 37.5ZM37.5 15C33.0499 15 28.6998 16.3196 24.9997 18.7919C21.2996 21.2643 18.4157 24.7783 16.7127 28.8896C15.0097 33.001 14.5642 37.525 15.4323 41.8895C16.3005 46.2541 18.4434 50.2632 21.5901 53.4099C24.7368 56.5566 28.7459 58.6995 33.1105 59.5677C37.475 60.4358 41.999 59.9903 46.1104 58.2873C50.2217 56.5843 53.7357 53.7004 56.2081 50.0003C58.6804 46.3002 60 41.9501 60 37.5C60 31.5326 57.6295 25.8097 53.4099 21.5901C49.1903 17.3705 43.4674 15 37.5 15ZM49.1484 42.3305C49.1286 43.303 48.9439 44.265 48.6023 45.1758C48.3014 45.9541 47.8411 46.6609 47.251 47.251C46.6609 47.8411 45.9541 48.3013 45.1758 48.6023C44.2658 48.9437 43.3045 49.1283 42.3328 49.1484C41.0813 49.2047 40.6828 49.2187 37.5 49.2187C34.3172 49.2187 33.9188 49.2047 32.6672 49.1484C31.6955 49.1283 30.7342 48.9437 29.8242 48.6023C29.0459 48.3013 28.3391 47.8411 27.749 47.251C27.1589 46.6609 26.6987 45.9541 26.3977 45.1758C26.0563 44.2658 25.8717 43.3045 25.8516 42.3328C25.7953 41.0812 25.7813 40.6828 25.7813 37.5C25.7813 34.3172 25.7953 33.9187 25.8516 32.6672C25.8709 31.6956 26.0548 30.7344 26.3953 29.8242C26.6963 29.0452 27.1568 28.3378 27.7473 27.7473C28.3378 27.1568 29.0453 26.6963 29.8242 26.3953C30.7344 26.0548 31.6956 25.8709 32.6672 25.8516C33.9188 25.7953 34.3172 25.7812 37.5 25.7812C40.6828 25.7812 41.0813 25.7953 42.3328 25.8516C43.3044 25.8709 44.2656 26.0548 45.1758 26.3953C45.9543 26.6966 46.6613 27.1572 47.2514 27.7477C47.8415 28.3382 48.3016 29.0455 48.6023 29.8242C48.9437 30.7342 49.1283 31.6955 49.1484 32.6672C49.2047 33.9187 49.2188 34.3172 49.2188 37.5C49.2188 40.6828 49.2047 41.0789 49.1484 42.3305Z" fill="black"/>
</g>
<defs>
<filter id="filter0_d_60_63" x="0" y="0" width="75" height="75" filterUnits="userSpaceOnUse" color-interpolation-filters="sRGB">
<feFlood flood-opacity="0" result="BackgroundImageFix"/>
<feColorMatrix in="SourceAlpha" type="matrix" values="0 0 0 0 0 0 0 0 0 0 0 0 0 0 0 0 0 0 127 0" result="hardAlpha"/>
<feOffset/>
<feGaussianBlur stdDeviation="7.5"/>
<feComposite in2="hardAlpha" operator="out"/>
<feColorMatrix type="matrix" values="0 0 0 0 0.0509804 0 0 0 0 0.345098 0 0 0 0 0.0627451 0 0 0 1 0"/>
<feBlend mode="normal" in2="BackgroundImageFix" result="effect1_dropShadow_60_63"/>
<feBlend mode="normal" in="SourceGraphic" in2="effect1_dropShadow_60_63" result="shape"/>
</filter>
</defs>
</svg>
