<svg width="57" height="62" viewBox="0 0 57 62" fill="none" xmlns="http://www.w3.org/2000/svg">
<path d="M21.9341 0.00272449C22.0988 0.00272449 22.2661 0.00272452 22.4333 0.0194953C24.6706 0.0289402 26.6933 1.04838 28.1573 2.69113L28.1575 2.69137C29.6433 4.39115 30.6009 6.67458 30.7302 9.20593L30.7313 9.23287V54.6015C30.727 58.6857 27.7678 61.9953 24.1163 62H24.116C21.1299 61.997 18.6063 59.7859 17.78 56.7479L17.7677 56.6954C15.1099 56.5835 12.7314 55.3323 10.9959 53.3685L10.995 53.3674C9.15064 51.3369 8.0059 48.5169 7.99935 45.3979V44.7488C5.4628 43.3448 3.45623 41.1033 2.23072 38.3505L2.1978 38.2688C1.38269 36.5023 0.904785 34.4136 0.904785 32.2C0.904785 30.5883 1.15814 29.0427 1.62272 27.6105L1.5962 27.7041C2.38441 24.9315 3.91221 22.6311 5.91726 21.0302L5.95234 21.0035C5.82496 20.3653 5.74971 19.6305 5.74517 18.877V18.8733C5.74446 18.8234 5.74408 18.7645 5.74408 18.7054C5.74408 13.5384 8.87547 9.18922 13.1317 7.90229L13.2018 7.88413C13.6335 5.84288 14.5661 4.09315 15.8454 2.75222L15.8504 2.74701C17.4254 1.0588 19.5634 0.0153782 21.9193 0.00254285H21.9215L21.9341 0.00272449ZM26.9892 9.44496C26.9582 6.59102 24.9168 4.28157 22.3773 4.20461L22.3709 4.20443H21.934C19.167 4.28756 16.93 6.71472 16.7499 9.77038L16.749 9.78824L16.6518 11.5331L15.099 11.737C11.9391 12.1537 9.51118 15.1315 9.51118 18.7435C9.51118 18.7881 9.51151 18.8325 9.51226 18.877L9.5121 18.8704C9.53554 19.7413 9.68182 20.5659 9.93208 21.3345L9.91649 21.2798L10.4158 22.9298L9.05775 23.7674C7.22717 24.8745 5.85024 26.6995 5.21415 28.8971L5.19835 28.9604L5.16338 29.0748C4.8586 30.0032 4.68228 31.0752 4.68228 32.1932C4.68228 33.7338 5.01694 35.1869 5.60961 36.4666L5.58774 36.4147C6.62849 38.7854 8.44044 40.583 10.6487 41.4199L10.7103 41.4402L12.7973 42.1829L11.8287 44.3494C11.7872 44.6078 11.7635 44.9052 11.7635 45.2088C11.7635 45.2718 11.7646 45.3346 11.7665 45.3971L11.7663 45.388C11.8134 49.2985 14.6355 52.4547 18.1276 52.5074H21.2525V54.6014C21.2567 56.3727 22.5395 57.8074 24.1229 57.8122H24.1233C25.7071 57.8074 26.9899 56.3728 26.9941 54.6019V54.6013L26.9892 9.44496ZM15.5258 29.8902C10.0663 29.5118 5.76677 24.4672 5.76677 18.2996C5.76677 18.1636 5.76893 18.0281 5.77299 17.8934L5.77245 17.9129C5.94038 14.963 7.0718 12.3402 8.81484 10.4062L8.81555 10.4054C10.5439 8.45754 12.8862 7.19344 15.4905 7.0066L15.5208 7.00478L15.7405 11.1926C12.393 11.4567 9.73568 14.4287 9.50079 18.1486L9.4996 18.1725C9.49905 18.2065 9.49884 18.2466 9.49884 18.2869C9.49884 22.2313 12.2362 25.4609 15.7022 25.729L15.723 25.7302L15.5258 29.8902ZM30.7338 46.5049H26.9892C26.9849 41.8039 23.5787 37.9943 19.3757 37.9895H19.3754V33.8017C25.6456 33.8095 30.7267 39.4922 30.7338 46.5041L30.7338 46.5049ZM21.622 19.2837V15.0959C24.5851 15.0927 26.9864 12.4071 26.9892 9.0935V9.09326H30.7337C30.728 14.7188 26.6519 19.2774 21.6224 19.2838H21.6219L21.622 19.2837ZM35.7889 0.00278501C38.1416 0.0168918 40.2745 1.05668 41.8509 2.74241L41.8476 2.73878C43.1319 4.08492 44.0646 5.83465 44.4839 7.80681L44.4963 7.87595C48.8226 9.18086 51.954 13.53 51.954 18.6971C51.954 18.7561 51.9536 18.815 51.9528 18.8738L51.9529 18.865C51.9482 19.6223 51.873 20.357 51.7342 21.065L51.7456 20.9952C53.7858 22.6227 55.3137 24.9231 56.0793 27.6043L56.1018 27.6958C56.5398 29.0344 56.7932 30.58 56.7932 32.1917C56.7932 34.4053 56.3153 36.4941 55.4686 38.336L55.5002 38.2603C54.2417 41.095 52.2352 43.3363 49.772 44.7035L49.6987 44.7405V45.3881C49.6957 48.5067 48.5554 51.3268 46.7165 53.3579L46.7155 53.3591C44.9792 55.3239 42.6007 56.5752 39.9613 56.6864L39.9429 56.687C39.1043 59.7773 36.5807 61.9885 33.595 61.9916H33.5946C29.9428 61.9867 26.9835 58.6772 26.9793 54.5934V9.22452C27.1072 6.66204 28.0653 4.37432 29.5547 2.67L29.553 2.67194C31.0173 1.02913 33.0399 0.00980816 35.2755 0H35.2771L35.7889 0.00278501ZM45.8992 44.3467L44.9306 42.1802L47.0175 41.4375C49.2874 40.5804 51.0993 38.7828 52.1173 36.4695L52.1401 36.412C52.7109 35.1841 53.0456 33.7311 53.0456 32.1904C53.0456 31.0724 52.8693 30.0004 52.5461 29.0073L52.5645 29.072L52.5296 28.9576C51.8776 26.6965 50.5008 24.8717 48.7123 23.7879L48.6701 23.7646L47.3121 22.927L47.8114 21.277C48.0461 20.563 48.1923 19.7384 48.2156 18.8793L48.2158 18.8675C48.2165 18.8298 48.2169 18.7853 48.2169 18.7407C48.2169 15.1286 45.7889 12.1509 42.6587 11.7373L42.629 11.7341L41.0763 11.5303L40.9788 9.78546C40.7979 6.71187 38.5609 4.28471 35.8011 4.20171L35.7939 4.20153H35.3571C32.8111 4.27866 30.7698 6.58806 30.7388 9.4386V54.6014C30.743 56.3727 32.0257 57.8072 33.6091 57.8121H33.6096C35.1934 57.8074 36.4761 56.3727 36.4804 54.6019V52.5074H39.6009C43.0975 52.4547 45.9195 49.2985 45.9666 45.393V45.3879C45.9679 45.3425 45.9687 45.289 45.9687 45.2354C45.9687 44.9222 45.9434 44.6158 45.895 44.3182L45.8993 44.3494L45.8992 44.3467ZM41.9474 29.8902L41.7402 25.7024C45.2272 25.4331 47.9646 22.2036 47.9646 18.259C47.9646 18.2159 47.9643 18.1728 47.9636 18.1298V18.1363C47.7201 14.4002 45.0652 11.4376 41.7439 11.1773L41.7228 11.1761L41.9424 6.98826C44.5772 7.17679 46.9193 8.44083 48.6471 10.388L48.6476 10.3887C50.3893 12.3217 51.5196 14.9412 51.6867 17.8538L51.6883 17.8877C51.6924 18.0108 51.6948 18.1553 51.6948 18.3004C51.6948 24.4634 47.4016 29.505 41.9775 29.8886L41.9474 29.8903V29.8902ZM30.7338 46.5049H26.9892C26.9963 39.4923 32.0774 33.8096 38.347 33.8017H38.3477V37.9895C34.1444 37.9943 30.738 41.8038 30.7338 46.5044V46.5049ZM36.1009 19.2837C31.0709 19.2773 26.9949 14.7187 26.9892 9.0938V9.09326H30.7337C30.7364 12.4071 33.1378 15.0925 36.1005 15.0957H36.1008L36.1009 19.2837Z" fill="white"/>
<path d="M28.7436 49.3104C34.1248 49.3104 38.4872 40.6648 38.4872 30C38.4872 19.3352 34.1248 10.6897 28.7436 10.6897C23.3624 10.6897 19 19.3352 19 30C19 40.6648 23.3624 49.3104 28.7436 49.3104Z" fill="#A57939"/>
<path fill-rule="evenodd" clip-rule="evenodd" d="M28.7436 49.3104C28.7357 49.3104 28.7339 49.2955 28.7414 49.2921C33.0823 47.3377 36.3293 39.4582 36.3293 30.035C36.3293 20.6066 33.0787 12.7235 28.7341 10.7746C28.6992 10.759 28.7069 10.6897 28.7436 10.6897C34.1249 10.6897 38.4872 19.3352 38.4872 30C38.4872 40.6648 34.1249 49.3104 28.7436 49.3104Z" fill="#6A462F"/>
<path d="M35.8164 30.035C35.8164 34.6441 35.0219 38.8559 33.7113 42.1381C32.398 45.4274 30.589 47.733 28.5785 48.6381L28.9042 49.9461C31.2346 48.8968 33.2196 46.2854 34.615 42.7906C36.0132 39.2886 36.8421 34.849 36.8421 30.035H35.8164ZM28.5718 11.4288C30.5839 12.3314 32.3945 14.6363 33.7092 17.9264C35.0209 21.2094 35.8164 25.4233 35.8164 30.035H36.8421C36.8421 25.2183 36.0123 20.7765 34.6126 17.2736C33.2159 13.7778 31.2289 11.1667 28.8963 10.1204L28.5718 11.4288ZM28.7436 11.3793C31.2136 11.3793 33.5088 13.3631 35.209 16.7328C36.9073 20.0986 37.9744 24.7872 37.9744 30H39C39 24.5479 37.8858 19.5814 36.0577 15.9583C34.2314 12.339 31.6548 10 28.7436 10V11.3793ZM37.9744 30C37.9744 35.2128 36.9073 39.9014 35.209 43.2672C33.5088 46.6369 31.2136 48.6207 28.7436 48.6207V50C31.6548 50 34.2314 47.661 36.0577 44.0417C37.8858 40.4186 39 35.4521 39 30H37.9744ZM28.8963 10.1204C29.1489 10.2337 29.2484 10.5661 29.2191 10.8286C29.1894 11.0944 29.0166 11.3793 28.7436 11.3793V10C28.4338 10 28.2388 10.3196 28.2048 10.6239C28.1712 10.925 28.2843 11.2999 28.5718 11.4288L28.8963 10.1204ZM28.5785 48.6381C28.0015 48.8979 28.1736 50 28.7436 50V48.6207C29.2979 48.6207 29.4662 49.693 28.9042 49.9461L28.5785 48.6381Z" fill="#6A462F"/>
<path fill-rule="evenodd" clip-rule="evenodd" d="M28.7436 47.2411C28.7436 47.2411 25.6667 39.5218 25.6667 29.9997C25.6667 20.5101 28.7226 12.8111 28.7435 12.7586C28.7288 12.7957 27.2051 16.641 27.2051 21.379C27.2051 26.1401 28.7436 29.9997 28.7436 29.9997C28.7436 29.9997 30.2821 33.8593 30.2821 38.6204C30.2821 43.3815 28.7436 47.2411 28.7436 47.2411Z" fill="#6A462F"/>
<path d="M28.7436 47.2411L28.2916 47.567C28.3809 47.791 28.5546 47.9308 28.7436 47.9308C28.9326 47.9308 29.1063 47.791 29.1956 47.567L28.7436 47.2411ZM28.7435 12.7586L29.1958 13.0837C29.3293 12.7478 29.235 12.33 28.9853 12.1504C28.7356 11.9709 28.4249 12.0975 28.2913 12.4333L28.7435 12.7586ZM25.1539 29.9997C25.1539 34.8567 25.938 39.2428 26.7184 42.4083C27.109 43.9928 27.5 45.2765 27.7943 46.1664C27.9414 46.6115 28.0645 46.9584 28.1514 47.1956C28.1948 47.3142 28.2293 47.4055 28.2531 47.4678C28.265 47.499 28.2744 47.523 28.2808 47.5395C28.2841 47.5478 28.2866 47.5543 28.2884 47.5588C28.2894 47.5611 28.2901 47.563 28.2906 47.5643C28.2908 47.565 28.2911 47.5655 28.2913 47.566C28.2914 47.5662 28.2916 47.5668 28.2916 47.567C28.2917 47.5672 28.2916 47.567 28.7436 47.2411C29.1956 46.9152 29.1957 46.9154 29.1957 46.9155C29.1956 46.9155 29.1958 46.9158 29.1957 46.9155C29.1955 46.915 29.1949 46.9136 29.1943 46.9121C29.1932 46.9092 29.1913 46.9044 29.1887 46.8978C29.1836 46.8846 29.1756 46.8641 29.165 46.8364C29.1438 46.781 29.1121 46.6971 29.0714 46.5861C28.9901 46.3639 28.8727 46.0334 28.7314 45.606C28.4487 44.751 28.0705 43.5097 27.6919 41.9742C26.9339 38.8995 26.1795 34.6649 26.1795 29.9997H25.1539ZM28.2913 12.4333C28.2587 12.5152 25.1539 20.337 25.1539 29.9997H26.1795C26.1795 20.6832 29.1865 13.1068 29.1958 13.0837L28.2913 12.4333ZM27.718 21.379C27.718 19.1054 28.0841 17.0352 28.4558 15.5223C28.8268 14.0115 29.198 13.078 29.1958 13.0837L28.2913 12.4333C28.2649 12.4999 26.6923 16.4681 26.6923 21.379H27.718ZM28.7436 29.9997C29.1956 29.6739 29.1956 29.6737 29.1956 29.6739C29.1952 29.6728 29.1943 29.6706 29.1932 29.6677C29.1909 29.6619 29.1873 29.6525 29.1823 29.6395C29.1723 29.6136 29.1572 29.5734 29.1375 29.5198C29.0982 29.4125 29.041 29.2514 28.9718 29.0421C28.8334 28.6232 28.6474 28.0132 28.4612 27.2577C28.0877 25.743 27.718 23.6637 27.718 21.379H26.6923C26.6923 23.8554 27.0918 26.0864 27.4876 27.6918C27.686 28.4964 27.8846 29.1488 28.0346 29.6025C28.1097 29.8294 28.1726 30.007 28.2175 30.1294C28.2399 30.1906 28.2578 30.238 28.2704 30.2709C28.2767 30.2874 28.2817 30.3002 28.2853 30.3094C28.287 30.3139 28.2885 30.3176 28.2896 30.3203C28.2901 30.3217 28.2905 30.3228 28.2909 30.3237C28.291 30.3241 28.2912 30.3244 28.2913 30.3248C28.2913 30.3246 28.2914 30.3249 28.2913 30.3248C28.2914 30.3249 28.2916 30.3256 28.7436 29.9997ZM28.7436 29.9997C28.2916 30.3256 28.2914 30.3249 28.2913 30.3248C28.2913 30.3246 28.2914 30.3249 28.2913 30.3248C28.2914 30.3248 28.2916 30.3254 28.2918 30.3259C28.2922 30.327 28.2929 30.3289 28.2941 30.3318C28.2963 30.3376 28.3 30.347 28.3049 30.3599C28.3149 30.3859 28.33 30.426 28.3497 30.4797C28.389 30.587 28.4462 30.7481 28.5154 30.9574C28.6539 31.3762 28.8398 31.9862 29.0261 32.7417C29.3995 34.2564 29.7693 36.3357 29.7693 38.6204H30.7949C30.7949 36.144 30.3954 33.913 29.9996 32.3077C29.8013 31.5031 29.6026 30.8506 29.4526 30.397C29.3776 30.17 29.3146 29.9925 29.2698 29.8701C29.2473 29.8089 29.2295 29.7614 29.2168 29.7286C29.2105 29.7121 29.2056 29.6992 29.202 29.6901C29.2002 29.6855 29.1987 29.6819 29.1977 29.6792C29.1972 29.6778 29.1967 29.6767 29.1964 29.6758C29.1962 29.6754 29.196 29.675 29.1959 29.6747C29.1958 29.6746 29.1957 29.6739 29.1956 29.6739C29.1956 29.6737 29.1956 29.6739 28.7436 29.9997ZM29.7693 38.6204C29.7693 40.9051 29.3995 42.9844 29.0261 44.4991C28.8398 45.2546 28.6539 45.8646 28.5154 46.2835C28.4462 46.4928 28.389 46.6539 28.3497 46.7612C28.33 46.8148 28.3149 46.855 28.3049 46.8809C28.3 46.8939 28.2963 46.9032 28.2941 46.909C28.2929 46.9119 28.2922 46.9139 28.2918 46.9149C28.2916 46.9155 28.2915 46.9157 28.2914 46.9158C28.2914 46.9157 28.2914 46.9159 28.2914 46.9158C28.2915 46.9157 28.2916 46.9152 28.7436 47.2411C29.1956 47.567 29.1956 47.5671 29.1956 47.567C29.1957 47.5668 29.1958 47.5663 29.1959 47.5661C29.196 47.5658 29.1962 47.5655 29.1964 47.565C29.1967 47.5641 29.1972 47.563 29.1977 47.5617C29.1987 47.559 29.2002 47.5553 29.202 47.5508C29.2055 47.5416 29.2105 47.5288 29.2168 47.5123C29.2294 47.4794 29.2473 47.4319 29.2698 47.3708C29.3146 47.2483 29.3776 47.0708 29.4526 46.8439C29.6026 46.3902 29.8013 45.7378 29.9996 44.9332C30.3954 43.3278 30.7949 41.0968 30.7949 38.6204H29.7693Z" fill="#6A462F"/>
<path d="M28.7436 49.3104C34.1248 49.3104 38.4872 40.6648 38.4872 30C38.4872 19.3352 34.1248 10.6897 28.7436 10.6897C23.3624 10.6897 19 19.3352 19 30C19 40.6648 23.3624 49.3104 28.7436 49.3104Z" stroke="white" stroke-width="2"/>
<path d="M28.7435 30C28.7435 30 27.2051 26.1404 27.2051 21.3793C27.2051 16.6182 28.7435 12.7586 28.7435 12.7586" stroke="white" stroke-width="2" stroke-linecap="round" stroke-linejoin="round"/>
<path d="M28.7436 30C28.7436 30 30.2821 33.8596 30.2821 38.6207C30.2821 43.3818 28.7436 47.2414 28.7436 47.2414" stroke="white" stroke-width="2" stroke-linecap="round" stroke-linejoin="round"/>
</svg>
