<svg width="34" height="34" viewBox="0 0 34 34" fill="none" xmlns="http://www.w3.org/2000/svg">
<circle cx="17" cy="17" r="17" fill="#0D5810"/>
<path d="M24.4191 22.6094L21.5474 19.7335L19.3385 18.8197C20.074 17.7722 20.4681 16.5227 20.4666 15.2422C20.4666 11.8003 17.6704 9 14.2333 9C10.7962 9 8 11.8003 8 15.2422C8 18.6842 10.7962 21.4845 14.2333 21.4845C15.5231 21.486 16.7811 21.0846 17.8323 20.3362L18.7425 22.5422L21.6141 25.4182C21.7983 25.6027 22.0169 25.749 22.2576 25.8488C22.4982 25.9486 22.7561 26 23.0166 26C23.277 26 23.5349 25.9486 23.7756 25.8488C24.0162 25.749 24.2349 25.6027 24.419 25.4183C24.6032 25.2339 24.7493 25.0149 24.849 24.7739C24.9487 24.533 25 24.2747 25 24.0139C25 23.753 24.9487 23.4947 24.849 23.2538C24.7494 23.0128 24.6033 22.7938 24.4191 22.6094ZM9.13333 15.2422C9.13333 12.4261 11.4212 10.135 14.2333 10.135C17.0454 10.135 19.3333 12.4261 19.3333 15.2422C19.3333 18.0584 17.0454 20.3495 14.2333 20.3495C11.4212 20.3495 9.13333 18.0584 9.13333 15.2422ZM23.6177 24.6157C23.4582 24.7751 23.242 24.8646 23.0166 24.8646C22.7913 24.8646 22.5751 24.7751 22.4156 24.6157L19.7037 21.8999L18.8574 19.8486L20.9058 20.6961L23.6178 23.4119C23.7769 23.5717 23.8663 23.7881 23.8663 24.0138C23.8663 24.2395 23.7769 24.4559 23.6177 24.6157Z" fill="white"/>
</svg>
