<svg width="111" height="19" viewBox="0 0 111 19" fill="none" xmlns="http://www.w3.org/2000/svg">
<path d="M9.40489 0.292705C9.43483 0.200574 9.56517 0.200574 9.59511 0.292705L11.6104 6.49524C11.6238 6.53644 11.6622 6.56434 11.7055 6.56434H18.2273C18.3241 6.56434 18.3644 6.6883 18.286 6.74524L13.0099 10.5786C12.9748 10.6041 12.9601 10.6492 12.9735 10.6904L14.9889 16.893C15.0188 16.9851 14.9133 17.0617 14.835 17.0048L9.55878 13.1714C9.52373 13.1459 9.47627 13.1459 9.44122 13.1714L4.16503 17.0048C4.08666 17.0617 3.98121 16.9851 4.01115 16.893L6.02647 10.6904C6.03986 10.6492 6.02519 10.6041 5.99014 10.5786L0.713952 6.74524C0.635581 6.6883 0.675859 6.56434 0.772731 6.56434H7.29446C7.33779 6.56434 7.37618 6.53644 7.38957 6.49524L9.40489 0.292705Z" fill="#FFAC33"/>
<path d="M32.4049 0.292705C32.4348 0.200574 32.5652 0.200574 32.5951 0.292705L34.6104 6.49524C34.6238 6.53644 34.6622 6.56434 34.7055 6.56434H41.2273C41.3241 6.56434 41.3644 6.6883 41.286 6.74524L36.0099 10.5786C35.9748 10.6041 35.9601 10.6492 35.9735 10.6904L37.9889 16.893C38.0188 16.9851 37.9133 17.0617 37.835 17.0048L32.5588 13.1714C32.5237 13.1459 32.4763 13.1459 32.4412 13.1714L27.165 17.0048C27.0867 17.0617 26.9812 16.9851 27.0111 16.893L29.0265 10.6904C29.0399 10.6492 29.0252 10.6041 28.9901 10.5786L23.714 6.74524C23.6356 6.6883 23.6759 6.56434 23.7727 6.56434H30.2945C30.3378 6.56434 30.3762 6.53644 30.3896 6.49524L32.4049 0.292705Z" fill="#FFAC33"/>
<path d="M55.4049 0.292705C55.4348 0.200574 55.5652 0.200574 55.5951 0.292705L57.6104 6.49524C57.6238 6.53644 57.6622 6.56434 57.7055 6.56434H64.2273C64.3241 6.56434 64.3644 6.6883 64.286 6.74524L59.0099 10.5786C58.9748 10.6041 58.9601 10.6492 58.9735 10.6904L60.9889 16.893C61.0188 16.9851 60.9133 17.0617 60.835 17.0048L55.5588 13.1714C55.5237 13.1459 55.4763 13.1459 55.4412 13.1714L50.165 17.0048C50.0867 17.0617 49.9812 16.9851 50.0111 16.893L52.0265 10.6904C52.0399 10.6492 52.0252 10.6041 51.9901 10.5786L46.714 6.74524C46.6356 6.6883 46.6759 6.56434 46.7727 6.56434H53.2945C53.3378 6.56434 53.3762 6.53644 53.3896 6.49524L55.4049 0.292705Z" fill="#FFAC33"/>
<path d="M78.4049 0.292705C78.4348 0.200574 78.5652 0.200574 78.5951 0.292705L80.6104 6.49524C80.6238 6.53644 80.6622 6.56434 80.7055 6.56434H87.2273C87.3241 6.56434 87.3644 6.6883 87.286 6.74524L82.0099 10.5786C81.9748 10.6041 81.9601 10.6492 81.9735 10.6904L83.9889 16.893C84.0188 16.9851 83.9133 17.0617 83.835 17.0048L78.5588 13.1714C78.5237 13.1459 78.4763 13.1459 78.4412 13.1714L73.165 17.0048C73.0867 17.0617 72.9812 16.9851 73.0111 16.893L75.0265 10.6904C75.0399 10.6492 75.0252 10.6041 74.9901 10.5786L69.714 6.74524C69.6356 6.6883 69.6759 6.56434 69.7727 6.56434H76.2945C76.3378 6.56434 76.3762 6.53644 76.3896 6.49524L78.4049 0.292705Z" fill="#FFAC33"/>
<path d="M101.853 12.7669L101.853 12.7669C101.642 12.6141 101.358 12.6141 101.147 12.7669L96.8671 15.8766L98.502 10.8449C98.5823 10.5977 98.4943 10.3269 98.284 10.1741L97.9901 10.5786L98.284 10.1741L94.0038 7.06434H99.2945C99.5544 7.06434 99.7848 6.89696 99.8651 6.64975L101.5 1.61804L103.135 6.64975L103.61 6.49524L103.135 6.64975C103.215 6.89696 103.446 7.06434 103.706 7.06434H108.996L104.716 10.1741C104.716 10.1741 104.716 10.1741 104.716 10.1741C104.506 10.3269 104.418 10.5977 104.498 10.8449L106.133 15.8766L101.853 12.7669Z" stroke="#FFAC33"/>
</svg>
