<svg width="21" height="21" viewBox="0 0 21 21" fill="none" xmlns="http://www.w3.org/2000/svg">
<mask id="path-1-inside-1_15_22" fill="white">
<path d="M16.0965 20.3543H15.5864V15.3313C15.5864 12.9472 13.8762 10.8982 11.4263 10.3485C11.32 10.3243 11.2414 10.2392 11.2314 10.1366C11.2208 10.0334 11.2817 9.93547 11.3816 9.89323C12.4564 9.44068 13.15 8.43097 13.15 7.32137C13.15 5.76859 11.8152 4.50479 10.1744 4.50479C8.53357 4.50479 7.1988 5.76792 7.1988 7.32137C7.1988 8.43164 7.89311 9.44135 8.96716 9.89323C9.06705 9.93547 9.12727 10.0334 9.11735 10.1366C9.10743 10.2392 9.02879 10.325 8.92252 10.3485C6.47262 10.8976 4.76236 12.9465 4.76236 15.3313V20.3543H4.25226V15.3313C4.25226 12.9197 5.85058 10.8225 8.20909 10.0434C7.26894 9.43531 6.68799 8.42024 6.68799 7.32137C6.68799 6.00459 7.5077 4.86482 8.68943 4.3365C8.82829 4.00664 8.89843 3.658 8.89843 3.29864C8.89843 1.74586 7.56367 0.482057 5.92284 0.482057C4.28202 0.482057 2.94654 1.74519 2.94654 3.29864C2.94654 4.40824 3.64085 5.41862 4.71489 5.8705C4.8155 5.91274 4.87572 6.01063 4.86509 6.11388C4.85517 6.21646 4.77653 6.30228 4.67026 6.32574C2.22036 6.87552 0.510101 8.92174 0.510101 11.3032V16.3316H0V11.3032C0 8.89493 1.59903 6.79908 3.95683 6.02069C3.01739 5.41258 2.43715 4.39751 2.43715 3.29864C2.43715 1.47969 4.00075 0 5.92284 0C7.84493 0 9.40854 1.47969 9.40854 3.29864C9.40854 3.58157 9.37169 3.85914 9.2973 4.12799C9.85771 3.99055 10.4897 3.99055 11.0494 4.12799C10.9757 3.85914 10.9381 3.58157 10.9381 3.29864C10.9381 1.47969 12.5024 0 14.4245 0C16.3466 0 17.9109 1.47969 17.9109 3.29864C17.9109 4.39818 17.33 5.41325 16.3905 6.02136C18.7491 6.79975 20.3481 8.89559 20.3481 11.3039V16.3316H19.8373V11.3032C19.8373 8.92174 18.127 6.87552 15.6771 6.32574C15.5708 6.30161 15.4922 6.21646 15.4823 6.11388C15.4717 6.01063 15.5326 5.91274 15.6325 5.8705C16.7065 5.41795 17.4001 4.40824 17.4001 3.29864C17.4001 1.74586 16.0654 0.482057 14.4245 0.482057C12.7837 0.482057 11.4489 1.74519 11.4489 3.29864C11.4489 3.658 11.5191 4.00664 11.6579 4.3365C12.8404 4.86549 13.6601 6.00459 13.6601 7.32137C13.6601 8.42091 13.0791 9.43598 12.1397 10.0441C14.4982 10.8232 16.0972 12.9203 16.0972 15.332L16.0965 20.3543ZM12.4798 15.8321L12.1184 15.4902L9.46521 18.0017L8.22822 16.8311L7.8676 17.173L9.46521 18.6842L12.4798 15.8321Z"/>
</mask>
<path d="M16.0965 20.3543H15.5864V15.3313C15.5864 12.9472 13.8762 10.8982 11.4263 10.3485C11.32 10.3243 11.2414 10.2392 11.2314 10.1366C11.2208 10.0334 11.2817 9.93547 11.3816 9.89323C12.4564 9.44068 13.15 8.43097 13.15 7.32137C13.15 5.76859 11.8152 4.50479 10.1744 4.50479C8.53357 4.50479 7.1988 5.76792 7.1988 7.32137C7.1988 8.43164 7.89311 9.44135 8.96716 9.89323C9.06705 9.93547 9.12727 10.0334 9.11735 10.1366C9.10743 10.2392 9.02879 10.325 8.92252 10.3485C6.47262 10.8976 4.76236 12.9465 4.76236 15.3313V20.3543H4.25226V15.3313C4.25226 12.9197 5.85058 10.8225 8.20909 10.0434C7.26894 9.43531 6.68799 8.42024 6.68799 7.32137C6.68799 6.00459 7.5077 4.86482 8.68943 4.3365C8.82829 4.00664 8.89843 3.658 8.89843 3.29864C8.89843 1.74586 7.56367 0.482057 5.92284 0.482057C4.28202 0.482057 2.94654 1.74519 2.94654 3.29864C2.94654 4.40824 3.64085 5.41862 4.71489 5.8705C4.8155 5.91274 4.87572 6.01063 4.86509 6.11388C4.85517 6.21646 4.77653 6.30228 4.67026 6.32574C2.22036 6.87552 0.510101 8.92174 0.510101 11.3032V16.3316H0V11.3032C0 8.89493 1.59903 6.79908 3.95683 6.02069C3.01739 5.41258 2.43715 4.39751 2.43715 3.29864C2.43715 1.47969 4.00075 0 5.92284 0C7.84493 0 9.40854 1.47969 9.40854 3.29864C9.40854 3.58157 9.37169 3.85914 9.2973 4.12799C9.85771 3.99055 10.4897 3.99055 11.0494 4.12799C10.9757 3.85914 10.9381 3.58157 10.9381 3.29864C10.9381 1.47969 12.5024 0 14.4245 0C16.3466 0 17.9109 1.47969 17.9109 3.29864C17.9109 4.39818 17.33 5.41325 16.3905 6.02136C18.7491 6.79975 20.3481 8.89559 20.3481 11.3039V16.3316H19.8373V11.3032C19.8373 8.92174 18.127 6.87552 15.6771 6.32574C15.5708 6.30161 15.4922 6.21646 15.4823 6.11388C15.4717 6.01063 15.5326 5.91274 15.6325 5.8705C16.7065 5.41795 17.4001 4.40824 17.4001 3.29864C17.4001 1.74586 16.0654 0.482057 14.4245 0.482057C12.7837 0.482057 11.4489 1.74519 11.4489 3.29864C11.4489 3.658 11.5191 4.00664 11.6579 4.3365C12.8404 4.86549 13.6601 6.00459 13.6601 7.32137C13.6601 8.42091 13.0791 9.43598 12.1397 10.0441C14.4982 10.8232 16.0972 12.9203 16.0972 15.332L16.0965 20.3543ZM12.4798 15.8321L12.1184 15.4902L9.46521 18.0017L8.22822 16.8311L7.8676 17.173L9.46521 18.6842L12.4798 15.8321Z" fill="white"/>
<path d="M16.0965 20.3543V25.3543H21.0958L21.0965 20.355L16.0965 20.3543ZM15.5864 20.3543H10.5864V25.3543H15.5864V20.3543ZM11.4263 10.3485L10.3189 15.2243L10.3315 15.2271L11.4263 10.3485ZM11.2314 10.1366L16.2082 9.65539L16.2067 9.64003L16.2052 9.62468L11.2314 10.1366ZM11.3816 9.89323L9.44124 5.2851L9.4344 5.28799L11.3816 9.89323ZM8.96716 9.89323L10.9144 5.28798L10.9062 5.28453L8.96716 9.89323ZM9.11735 10.1366L14.0941 10.6178L14.0944 10.6147L9.11735 10.1366ZM8.92252 10.3485L7.84443 5.46608L7.83671 5.46779L7.82899 5.46952L8.92252 10.3485ZM4.76236 20.3543V25.3543H9.76236V20.3543H4.76236ZM4.25226 20.3543H-0.747739V25.3543H4.25226V20.3543ZM8.20909 10.0434L9.77736 14.7911L19.6921 11.516L10.9246 5.8451L8.20909 10.0434ZM8.68943 4.3365L10.7301 8.9011L12.532 8.09555L13.2978 6.27644L8.68943 4.3365ZM4.71489 5.8705L2.77586 10.4792L2.77931 10.4807L4.71489 5.8705ZM4.86509 6.11388L-0.108633 5.60195L-0.110213 5.6173L-0.111698 5.63266L4.86509 6.11388ZM4.67026 6.32574L3.59217 1.44335L3.58381 1.4452L3.57546 1.44707L4.67026 6.32574ZM0.510101 16.3316V21.3316H5.5101V16.3316H0.510101ZM0 16.3316H-5V21.3316H0V16.3316ZM3.95683 6.02069L5.5243 10.7686L15.4373 7.49598L6.67381 1.82331L3.95683 6.02069ZM9.2973 4.12799L4.47837 2.79462L2.20358 11.016L10.4883 8.98407L9.2973 4.12799ZM11.0494 4.12799L9.85695 8.98372L18.1206 11.013L15.8715 2.80643L11.0494 4.12799ZM16.3905 6.02136L13.6736 1.82398L4.90904 7.4973L14.8235 10.7694L16.3905 6.02136ZM20.3481 16.3316V21.3316H25.3481V16.3316H20.3481ZM19.8373 16.3316H14.8373V21.3316H19.8373V16.3316ZM15.6771 6.32574L14.5697 11.2016L14.5823 11.2044L15.6771 6.32574ZM15.4823 6.11388L20.4591 5.63266L20.4576 5.6173L20.456 5.60195L15.4823 6.11388ZM15.6325 5.8705L13.691 1.26282L13.6852 1.26526L15.6325 5.8705ZM11.6579 4.3365L7.04962 6.27644L7.81512 8.09488L9.61611 8.90059L11.6579 4.3365ZM12.1397 10.0441L9.42272 5.84671L0.661083 11.5182L10.5714 14.7918L12.1397 10.0441ZM16.0972 15.332L21.0972 15.3327V15.332H16.0972ZM12.4798 15.8321L15.9161 19.4642L19.7545 15.8325L15.9165 12.2005L12.4798 15.8321ZM12.1184 15.4902L15.5552 11.8586L12.118 8.6058L8.68122 11.859L12.1184 15.4902ZM9.46521 18.0017L6.02847 21.6333L9.46567 24.8861L12.9024 21.6329L9.46521 18.0017ZM8.22822 16.8311L11.665 13.1995L8.22485 9.94396L4.78792 13.2028L8.22822 16.8311ZM7.8676 17.173L4.4273 13.5448L0.596196 17.1774L4.43166 20.8054L7.8676 17.173ZM9.46521 18.6842L6.02927 22.3166L9.46557 25.5671L12.9015 22.3163L9.46521 18.6842ZM16.0965 15.3543H15.5864V25.3543H16.0965V15.3543ZM20.5864 20.3543V15.3313H10.5864V20.3543H20.5864ZM20.5864 15.3313C20.5864 10.4339 17.0799 6.49283 12.5211 5.4698L10.3315 15.2271C10.4972 15.2643 10.5678 15.3336 10.5868 15.3563C10.5972 15.3687 10.5961 15.3715 10.5925 15.3617C10.5882 15.35 10.5864 15.3373 10.5864 15.3313H20.5864ZM12.5337 5.47265C14.3487 5.88489 15.9933 7.43294 16.2082 9.65539L6.25465 10.6178C6.48938 13.0454 8.29127 14.7638 10.3189 15.2243L12.5337 5.47265ZM16.2052 9.62468C16.4362 11.869 15.0982 13.7503 13.3289 14.4985L9.4344 5.28799C7.46527 6.1206 6.00546 8.19774 6.25771 10.6485L16.2052 9.62468ZM13.322 14.5014C16.1307 13.3187 18.15 10.5698 18.15 7.32137H8.14999C8.14999 6.29211 8.78208 5.56266 9.44125 5.2851L13.322 14.5014ZM18.15 7.32137C18.15 2.75241 14.3148 -0.495213 10.1744 -0.495213V9.50479C9.31564 9.50479 8.14999 8.78478 8.14999 7.32137H18.15ZM10.1744 -0.495213C6.03478 -0.495213 2.1988 2.75099 2.1988 7.32137H12.1988C12.1988 8.78486 11.0324 9.50479 10.1744 9.50479V-0.495213ZM2.1988 7.32137C2.1988 10.571 4.21936 13.3202 7.02812 14.5019L10.9062 5.28453C11.5669 5.56249 12.1988 6.29233 12.1988 7.32137H2.1988ZM7.01992 14.4985C5.22353 13.7389 3.92954 11.8521 4.14026 9.65849L14.0944 10.6147C14.325 8.21466 12.9106 6.13204 10.9144 5.28799L7.01992 14.4985ZM4.14056 9.65539C4.35338 7.45445 5.98221 5.87728 7.84443 5.46608L10.0006 15.2309C12.0754 14.7727 13.8615 13.0239 14.0941 10.6178L4.14056 9.65539ZM7.82899 5.46952C3.26847 6.49168 -0.237637 10.4338 -0.237637 15.3313H9.76236C9.76236 15.3369 9.76067 15.3495 9.75637 15.3611C9.75276 15.3708 9.75174 15.3681 9.76198 15.3558C9.78073 15.3334 9.85092 15.2644 10.0161 15.2274L7.82899 5.46952ZM-0.237637 15.3313V20.3543H9.76236V15.3313H-0.237637ZM4.76236 15.3543H4.25226V25.3543H4.76236V15.3543ZM9.25226 20.3543V15.3313H-0.747739V20.3543H9.25226ZM9.25226 15.3313C9.25226 15.2511 9.27407 15.1711 9.34198 15.0808C9.41395 14.9851 9.55041 14.8661 9.77736 14.7911L6.64082 5.29573C2.38467 6.70163 -0.747739 10.608 -0.747739 15.3313H9.25226ZM10.9246 5.8451C11.3182 6.09968 11.688 6.6187 11.688 7.32137H1.68799C1.68799 10.2218 3.21967 12.7709 5.49355 14.2417L10.9246 5.8451ZM11.688 7.32137C11.688 8.16904 11.1661 8.70619 10.7301 8.9011L6.64874 -0.228096C3.84929 1.02346 1.68799 3.84015 1.68799 7.32137H11.688ZM13.2978 6.27644C13.6966 5.32902 13.8984 4.32052 13.8984 3.29864H3.89843C3.89843 2.99549 3.96 2.68425 4.08111 2.39656L13.2978 6.27644ZM13.8984 3.29864C13.8984 -1.27032 10.0633 -4.51794 5.92284 -4.51794V5.48206C5.06408 5.48206 3.89843 4.76205 3.89843 3.29864H13.8984ZM5.92284 -4.51794C1.78482 -4.51794 -2.05346 -1.27325 -2.05346 3.29864H7.94654C7.94654 4.76364 6.77922 5.48206 5.92284 5.48206V-4.51794ZM-2.05346 3.29864C-2.05346 6.54687 -0.0335594 9.29719 2.77586 10.4792L6.65393 1.2618C7.31526 1.54004 7.94654 2.26961 7.94654 3.29864H-2.05346ZM2.77931 10.4807C0.98279 9.72638 -0.337829 7.82876 -0.108633 5.60195L9.83882 6.6258C10.0893 4.1925 8.64821 2.0991 6.65048 1.26035L2.77931 10.4807ZM-0.111698 5.63266C0.101116 3.43172 1.72995 1.85455 3.59217 1.44335L5.74835 11.2081C7.82312 10.75 9.60923 9.00119 9.84188 6.59509L-0.111698 5.63266ZM3.57546 1.44707C-0.978554 2.46902 -4.4899 6.40377 -4.4899 11.3032H5.5101C5.5101 11.3106 5.50809 11.3246 5.50335 11.3374C5.49932 11.3483 5.49784 11.3461 5.50791 11.3341C5.52641 11.312 5.59745 11.242 5.76506 11.2044L3.57546 1.44707ZM-4.4899 11.3032V16.3316H5.5101V11.3032H-4.4899ZM0.510101 11.3316H0V21.3316H0.510101V11.3316ZM5 16.3316V11.3032H-5V16.3316H5ZM5 11.3032C5 11.2268 5.02064 11.1485 5.08849 11.0584C5.16043 10.9628 5.29716 10.8436 5.5243 10.7686L2.38935 1.27274C-1.86316 2.67665 -5 6.57962 -5 11.3032H5ZM6.67381 1.82331C7.06901 2.07912 7.43715 2.59851 7.43715 3.29864H-2.56285C-2.56285 6.19651 -1.03422 8.74605 1.23984 10.2181L6.67381 1.82331ZM7.43715 3.29864C7.43715 4.49738 6.49875 5 5.92284 5V-5C1.50276 -5 -2.56285 -1.538 -2.56285 3.29864H7.43715ZM5.92284 5C5.34694 5 4.40854 4.49738 4.40854 3.29864H14.4085C14.4085 -1.538 10.3429 -5 5.92284 -5V5ZM4.40854 3.29864C4.40854 3.14447 4.42906 2.97285 4.47837 2.79462L14.1162 5.46136C14.3143 4.74543 14.4085 4.01867 14.4085 3.29864H4.40854ZM10.4883 8.98407C10.3546 9.01686 10.2514 9.02491 10.1736 9.02491C10.0959 9.02491 9.9919 9.01686 9.85695 8.98372L12.2418 -0.727742C10.8983 -1.05766 9.44862 -1.0573 8.10631 -0.728091L10.4883 8.98407ZM15.8715 2.80643C15.9161 2.96908 15.9381 3.13602 15.9381 3.29864H5.93813C5.93813 4.02712 6.03524 4.7492 6.22718 5.44955L15.8715 2.80643ZM15.9381 3.29864C15.9381 4.49867 14.9991 5 14.4245 5V-5C10.0058 -5 5.93813 -1.53928 5.93813 3.29864H15.9381ZM14.4245 5C13.85 5 12.9109 4.49867 12.9109 3.29864H22.9109C22.9109 -1.53928 18.8433 -5 14.4245 -5V5ZM12.9109 3.29864C12.9109 2.59762 13.2797 2.07889 13.6736 1.82398L19.1075 10.2187C21.3802 8.74761 22.9109 6.19875 22.9109 3.29864H12.9109ZM14.8235 10.7694C15.0511 10.8446 15.1878 10.9639 15.2597 11.0593C15.3275 11.1493 15.3481 11.2275 15.3481 11.3039H25.3481C25.3481 6.57999 22.2109 2.67702 17.9576 1.27327L14.8235 10.7694ZM15.3481 11.3039V16.3316H25.3481V11.3039H15.3481ZM20.3481 11.3316H19.8373V21.3316H20.3481V11.3316ZM24.8373 16.3316V11.3032H14.8373V16.3316H24.8373ZM24.8373 11.3032C24.8373 6.40377 21.3259 2.46902 16.7719 1.44707L14.5823 11.2044C14.7499 11.242 14.821 11.312 14.8395 11.3341C14.8495 11.3461 14.8481 11.3483 14.844 11.3374C14.8393 11.3246 14.8373 11.3106 14.8373 11.3032H24.8373ZM16.7845 1.44992C18.5996 1.86216 20.2442 3.41023 20.4591 5.63266L10.5055 6.59509C10.7402 9.02268 12.5421 10.7411 14.5697 11.2016L16.7845 1.44992ZM20.456 5.60195C20.687 7.84622 19.3491 9.7276 17.5797 10.4757L13.6852 1.26526C11.7161 2.09788 10.2563 4.17504 10.5086 6.6258L20.456 5.60195ZM17.574 10.4782C20.3815 9.29521 22.4001 6.54654 22.4001 3.29864H12.4001C12.4001 2.26995 13.0316 1.54069 13.691 1.26283L17.574 10.4782ZM22.4001 3.29864C22.4001 -1.27032 18.5649 -4.51794 14.4245 -4.51794V5.48206C13.5658 5.48206 12.4001 4.76205 12.4001 3.29864H22.4001ZM14.4245 -4.51794C10.2849 -4.51794 6.44894 -1.27174 6.44894 3.29864H16.4489C16.4489 4.76213 15.2825 5.48206 14.4245 5.48206V-4.51794ZM6.44894 3.29864C6.44894 4.32052 6.65079 5.32902 7.04962 6.27644L16.2663 2.39656C16.3874 2.68425 16.4489 2.99549 16.4489 3.29864H6.44894ZM9.61611 8.90059C9.1838 8.70719 8.66009 8.17099 8.66009 7.32137H18.6601C18.6601 3.83819 16.497 1.02379 13.6998 -0.227587L9.61611 8.90059ZM8.66009 7.32137C8.66009 6.62035 9.02891 6.10162 9.42272 5.84671L14.8567 14.2415C17.1294 12.7703 18.6601 10.2215 18.6601 7.32137H8.66009ZM10.5714 14.7918C10.7986 14.8668 10.9354 14.9861 11.0075 15.082C11.0756 15.1724 11.0972 15.2523 11.0972 15.332H21.0972C21.0972 10.6077 17.9631 6.70198 13.708 5.2964L10.5714 14.7918ZM11.0972 15.3313L11.0965 20.3536L21.0965 20.355L21.0972 15.3327L11.0972 15.3313ZM15.9165 12.2005L15.5552 11.8586L8.6817 19.1218L9.04302 19.4638L15.9165 12.2005ZM8.68122 11.859L6.02798 14.3705L12.9024 21.6329L15.5557 19.1214L8.68122 11.859ZM12.902 14.3701L11.665 13.1995L4.79147 20.4627L6.02847 21.6333L12.902 14.3701ZM4.78792 13.2028L4.4273 13.5448L11.3079 20.8013L11.6685 20.4594L4.78792 13.2028ZM4.43166 20.8054L6.02927 22.3166L12.9012 15.0518L11.3035 13.5406L4.43166 20.8054ZM12.9015 22.3163L15.9161 19.4642L9.04345 12.2001L6.02889 15.0522L12.9015 22.3163Z" fill="white" mask="url(#path-1-inside-1_15_22)"/>
</svg>
