<svg width="75" height="75" viewBox="0 0 75 75" fill="none" xmlns="http://www.w3.org/2000/svg">
<g filter="url(#filter0_d_60_66)">
<path d="M37.5 15C25.0734 15 15 25.0734 15 37.5C15 49.9266 25.0734 60 37.5 60C49.9266 60 60 49.9266 60 37.5C60 25.0734 49.9266 15 37.5 15ZM46.6523 33.4312C46.6617 33.6234 46.6641 33.8156 46.6641 34.0031C46.6641 39.8625 42.2086 46.6148 34.057 46.6148C31.6483 46.6188 29.2898 45.9271 27.2648 44.6227C27.6094 44.6648 27.9633 44.6813 28.3219 44.6813C30.3984 44.6813 32.3086 43.9758 33.825 42.7852C32.9009 42.767 32.0055 42.461 31.2635 41.9098C30.5216 41.3586 29.9701 40.5897 29.6859 39.7102C30.3496 39.8363 31.0332 39.8099 31.6852 39.6328C30.6821 39.43 29.7802 38.8865 29.1321 38.0945C28.4841 37.3025 28.1299 36.3108 28.1297 35.2875V35.2336C28.7273 35.5641 29.4117 35.7656 30.1383 35.7891C29.198 35.1631 28.5323 34.2016 28.2774 33.1011C28.0226 32.0006 28.1978 30.8443 28.7672 29.8687C29.8804 31.2375 31.2686 32.3572 32.842 33.1554C34.4153 33.9536 36.1388 34.4125 37.9008 34.5023C37.6768 33.5515 37.7732 32.5533 38.175 31.6629C38.5769 30.7725 39.2616 30.0398 40.1228 29.5787C40.984 29.1177 41.9734 28.954 42.9373 29.1133C43.9011 29.2725 44.7852 29.7458 45.4523 30.4594C46.4441 30.2631 47.3953 29.8993 48.2648 29.3836C47.9343 30.4105 47.2422 31.2824 46.3172 31.8375C47.1957 31.7317 48.0536 31.4955 48.8625 31.1367C48.2683 32.0271 47.5198 32.8041 46.6523 33.4312Z" fill="black"/>
</g>
<defs>
<filter id="filter0_d_60_66" x="0" y="0" width="75" height="75" filterUnits="userSpaceOnUse" color-interpolation-filters="sRGB">
<feFlood flood-opacity="0" result="BackgroundImageFix"/>
<feColorMatrix in="SourceAlpha" type="matrix" values="0 0 0 0 0 0 0 0 0 0 0 0 0 0 0 0 0 0 127 0" result="hardAlpha"/>
<feOffset/>
<feGaussianBlur stdDeviation="7.5"/>
<feComposite in2="hardAlpha" operator="out"/>
<feColorMatrix type="matrix" values="0 0 0 0 0.0501139 0 0 0 0 0.345833 0 0 0 0 0.0619427 0 0 0 1 0"/>
<feBlend mode="normal" in2="BackgroundImageFix" result="effect1_dropShadow_60_66"/>
<feBlend mode="normal" in="SourceGraphic" in2="effect1_dropShadow_60_66" result="shape"/>
</filter>
</defs>
</svg>
